PathFileType	4	(X/Y/Z)	SUB01_off_static_1_1707858583308
DataRate	CameraRate	NumFrames	NumMarkers	Units	OrigDataRate	OrigDataStartFrame	OrigNumFrames
150.00	150.00	       4	71	mm  	150.00	113	       150
Frame#	Time	CLAV			STRN			C7			T10			RSHO			LSHO			RUPA			REL			REM			RFRA			RWL			RWM			LUPA			LEL			LEM			LFRA			LWL			LWM			R.ASIS			L.ASIS			R.PSIS			L.PSIS			R.GTR			R.Knee			R.HF			R.TT			R.Ankle			R.Heel			R.MT1			R.MT5			L.GTR			L.Knee			L.HF			L.TT			L.Ankle			L.Heel			L.MT1			L.MT5			R.Knee.Medial			R.Ankle.Medial			R.MT2			L.Knee.Medial			L.Ankle.Medial			L.MT2			V_Mid_ASIS			V_Mid_PSIS			V_Pelvis_Origin			V_R.Hip_JC			V_R.Knee_JC_Static			V_R.TT			V_R.Ankle_JC			V_L.Hip_JC			V_Mid_Hip			V_R.MT2			V_R.Knee.Medial			V_R.Ankle.Medial			V_R.TT			V_L.Knee_JC_Static			V_L.TT			V_L.Ankle_JC			V_L.MT2			V_L.Knee.Medial			V_L.Ankle.Medial			V_R.Knee_JC2			V_R.Knee2			V_R.Knee_JC_Dynamic			V_R.Ankle_JC_Dynamic			V_L.Knee_JC_Dynamic			V_L.Ankle_JC_Dynamic			V_R.TT2			V_L.TT2			
		X1	Y1	Z1	X2	Y2	Z2	X3	Y3	Z3	X4	Y4	Z4	X5	Y5	Z5	X6	Y6	Z6	X7	Y7	Z7	X8	Y8	Z8	X9	Y9	Z9	X10	Y10	Z10	X11	Y11	Z11	X12	Y12	Z12	X13	Y13	Z13	X14	Y14	Z14	X15	Y15	Z15	X16	Y16	Z16	X17	Y17	Z17	X18	Y18	Z18	X19	Y19	Z19	X20	Y20	Z20	X21	Y21	Z21	X22	Y22	Z22	X23	Y23	Z23	X24	Y24	Z24	X25	Y25	Z25	X26	Y26	Z26	X27	Y27	Z27	X28	Y28	Z28	X29	Y29	Z29	X30	Y30	Z30	X31	Y31	Z31	X32	Y32	Z32	X33	Y33	Z33	X34	Y34	Z34	X35	Y35	Z35	X36	Y36	Z36	X37	Y37	Z37	X38	Y38	Z38	X39	Y39	Z39	X40	Y40	Z40	X41	Y41	Z41	X42	Y42	Z42	X43	Y43	Z43	X44	Y44	Z44	X45	Y45	Z45	X46	Y46	Z46	X47	Y47	Z47	X48	Y48	Z48	X49	Y49	Z49	X50	Y50	Z50	X51	Y51	Z51	X52	Y52	Z52	X53	Y53	Z53	X54	Y54	Z54	X55	Y55	Z55	X56	Y56	Z56	X57	Y57	Z57	X58	Y58	Z58	X59	Y59	Z59	X60	Y60	Z60	X61	Y61	Z61	X62	Y62	Z62	X63	Y63	Z63	X64	Y64	Z64	X65	Y65	Z65	X66	Y66	Z66	X67	Y67	Z67	X68	Y68	Z68	X69	Y69	Z69	X70	Y70	Z70	X71	Y71	Z71	
113	0.746667	970.187622	1389.905762	588.210693	976.044312	1230.158813	581.414307	837.854736	1488.491455	588.171204	742.145691	1233.628540	565.131409	841.230103	1480.492554	732.848450	874.179871	1495.203003	443.816223	876.484924	1461.444092	912.092041	909.543152	1471.501465	1005.790222	938.089783	1371.297485	1016.198303	945.342285	1471.553589	1172.723267	1020.473572	1432.720581	1251.556763	955.963806	1463.275513	1271.503906	943.667114	1478.904785	276.805176	997.496887	1489.994385	167.521774	1008.962036	1387.978394	153.259155	1028.326294	1477.037598	23.439283	1127.146240	1432.558838	-43.065292	1063.241333	1460.605103	-70.396774	962.127991	942.760986	679.152405	960.725708	935.130859	471.362396	761.251892	1010.210571	604.732422	767.039978	1008.891785	525.887451	858.973877	883.102722	753.394592	862.699036	512.331604	730.525269	864.128052	441.004181	732.412903	906.859009	397.832764	681.342651	781.662354	93.274330	724.971802	724.842896	49.838833	681.550659	927.073425	43.065937	676.604614	888.868896	30.989492	761.608948	874.972107	882.640930	393.969849	869.512634	497.214600	433.952972	875.378662	438.834839	436.915771	917.118347	393.252136	483.888062	781.328369	76.796036	462.557709	733.328369	53.718414	513.000610	942.540955	40.124786	497.943054	889.530212	33.118526	422.909576	870.298462	501.787537	601.037415	807.986511	94.633339	640.703857	928.918945	38.810280	715.976135	890.246582	499.537170	563.695435	817.648254	80.160843	546.276794	932.450684	38.785439	459.071991	0.000000	0.000000	0.000000	0.000000	0.000000	0.000000	0.000000	0.000000	0.000000	0.000000	0.000000	0.000000	0.000000	0.000000	0.000000	0.000000	0.000000	0.000000	0.000000	0.000000	0.000000	0.000000	0.000000	0.000000	0.000000	0.000000	0.000000	0.000000	0.000000	0.000000	0.000000	0.000000	0.000000	0.000000	0.000000	0.000000	0.000000	0.000000	0.000000	0.000000	0.000000	0.000000	0.000000	0.000000	0.000000	0.000000	0.000000	0.000000	0.000000	0.000000	0.000000	0.000000	0.000000	0.000000	0.000000	0.000000	0.000000	0.000000	0.000000	0.000000	0.000000	0.000000	0.000000	0.000000	0.000000	0.000000	0.000000	0.000000	0.000000	0.000000	0.000000	0.000000	0.000000	0.000000	0.000000	0.000000	0.000000	0.000000	0.000000	0.000000	0.000000	
114	0.753333	970.227722	1389.900879	588.208008	976.077332	1230.157104	581.399475	837.899414	1488.486206	588.187439	742.180847	1233.628296	565.144226	841.258301	1480.486938	732.859192	874.201782	1495.215698	443.835632	876.517944	1461.417480	912.103882	909.562683	1471.464478	1005.807556	938.097778	1371.256836	1016.214539	945.317810	1471.496460	1172.750732	1020.440247	1432.655396	1251.596313	955.933472	1463.213257	1271.523926	943.656250	1478.927368	276.806396	997.470337	1490.037354	167.511887	1009.037659	1388.025146	153.293686	1028.272217	1477.056519	23.424431	1127.106689	1432.594116	-43.093456	1063.188232	1460.622314	-70.408501	962.175293	942.753479	679.134521	960.748596	935.131958	471.338898	761.288879	1010.207275	604.740601	767.065308	1008.891479	525.892700	859.031494	883.097900	753.384583	862.751038	512.326660	730.516846	864.165405	441.000336	732.405334	906.877686	397.824402	681.315125	781.668762	93.277107	724.971252	724.844604	49.843327	681.549805	927.075256	43.065269	676.602417	888.870300	30.989916	761.606445	874.987549	882.640442	393.958252	869.525269	497.213715	433.943176	875.392517	438.832184	436.904602	917.131470	393.249756	483.877472	781.330139	76.798615	462.555756	733.329712	53.722897	512.999878	942.542419	40.124203	497.943054	889.529358	33.117893	422.907898	870.337097	501.782562	601.029419	807.990479	94.633446	640.701111	928.920715	38.810417	715.974731	890.271240	499.531006	563.686890	817.651306	80.162392	546.274902	932.451172	38.785065	459.070129	0.000000	0.000000	0.000000	0.000000	0.000000	0.000000	0.000000	0.000000	0.000000	0.000000	0.000000	0.000000	0.000000	0.000000	0.000000	0.000000	0.000000	0.000000	0.000000	0.000000	0.000000	0.000000	0.000000	0.000000	0.000000	0.000000	0.000000	0.000000	0.000000	0.000000	0.000000	0.000000	0.000000	0.000000	0.000000	0.000000	0.000000	0.000000	0.000000	0.000000	0.000000	0.000000	0.000000	0.000000	0.000000	0.000000	0.000000	0.000000	0.000000	0.000000	0.000000	0.000000	0.000000	0.000000	0.000000	0.000000	0.000000	0.000000	0.000000	0.000000	0.000000	0.000000	0.000000	0.000000	0.000000	0.000000	0.000000	0.000000	0.000000	0.000000	0.000000	0.000000	0.000000	0.000000	0.000000	0.000000	0.000000	0.000000	0.000000	0.000000	0.000000	
115	0.760000	970.271118	1389.894287	588.205872	976.109436	1230.155273	581.383911	837.944702	1488.482422	588.205688	742.216125	1233.629395	565.155579	841.289856	1480.480713	732.871094	874.226868	1495.229614	443.856415	876.550476	1461.395996	912.116821	909.584351	1471.432983	1005.826233	938.095398	1371.217896	1016.236938	945.295776	1471.448242	1172.778442	1020.404907	1432.598755	1251.635620	955.903625	1463.161133	1271.546631	943.647095	1478.948608	276.807343	997.444702	1490.077148	167.501221	1009.114075	1388.066650	153.330246	1028.210571	1477.066650	23.406614	1127.060791	1432.618530	-43.124775	1063.127930	1460.625366	-70.424873	962.221619	942.749695	679.116699	960.770935	935.133972	471.316162	761.324646	1010.203674	604.747009	767.088989	1008.890869	525.896545	859.089722	883.093628	753.374512	862.804993	512.322021	730.509033	864.204407	440.996887	732.398254	906.899109	397.816254	681.290161	781.675781	93.280792	724.971313	724.846558	49.848663	681.549377	927.077148	43.064655	676.600342	888.872192	30.989870	761.603210	875.003540	882.639648	393.946350	869.535950	497.213074	433.933746	875.405090	438.829834	436.893677	917.143738	393.247650	483.867035	781.331848	76.801048	462.553955	733.331055	53.727238	512.999390	942.543762	40.123497	497.943207	889.528503	33.117321	422.906464	870.379639	501.777405	601.021667	807.994873	94.634239	640.698914	928.922668	38.810814	715.973633	890.293396	499.525055	563.678528	817.654236	80.163925	546.273376	932.451538	38.784622	459.068390	0.000000	0.000000	0.000000	0.000000	0.000000	0.000000	0.000000	0.000000	0.000000	0.000000	0.000000	0.000000	0.000000	0.000000	0.000000	0.000000	0.000000	0.000000	0.000000	0.000000	0.000000	0.000000	0.000000	0.000000	0.000000	0.000000	0.000000	0.000000	0.000000	0.000000	0.000000	0.000000	0.000000	0.000000	0.000000	0.000000	0.000000	0.000000	0.000000	0.000000	0.000000	0.000000	0.000000	0.000000	0.000000	0.000000	0.000000	0.000000	0.000000	0.000000	0.000000	0.000000	0.000000	0.000000	0.000000	0.000000	0.000000	0.000000	0.000000	0.000000	0.000000	0.000000	0.000000	0.000000	0.000000	0.000000	0.000000	0.000000	0.000000	0.000000	0.000000	0.000000	0.000000	0.000000	0.000000	0.000000	0.000000	0.000000	0.000000	0.000000	0.000000	
116	0.766667	970.318665	1389.885376	588.205017	976.140686	1230.152954	581.368347	837.991150	1488.479980	588.225708	742.251648	1233.631836	565.165466	841.324890	1480.474365	732.884094	874.256104	1495.243896	443.878479	876.582825	1461.380005	912.130737	909.607910	1471.407593	1005.846313	938.084473	1371.181885	1016.264709	945.276245	1471.409546	1172.806641	1020.368652	1432.551270	1251.674927	955.874207	1463.119141	1271.571899	943.641968	1478.967529	276.808899	997.422058	1490.112061	167.490631	1009.186096	1388.101318	153.366013	1028.144409	1477.068970	23.386850	1127.009521	1432.632446	-43.158596	1063.062256	1460.615967	-70.445412	962.266907	942.749512	679.098877	960.792664	935.136353	471.294220	761.359009	1010.199707	604.751404	767.111511	1008.889771	525.898926	859.148132	883.089600	753.364319	862.859680	512.317566	730.501831	864.244507	440.993591	732.391357	906.922974	397.808258	681.268066	781.683167	93.285057	724.971741	724.848572	49.854496	681.549316	927.079102	43.064064	676.598511	888.874390	30.989511	761.599609	875.019958	882.638489	393.934082	869.545288	497.212555	433.924683	875.416870	438.827667	436.882874	917.155396	393.245667	483.856659	781.333374	76.803299	462.552368	733.332397	53.731365	512.999207	942.544800	40.122749	497.943512	889.527527	33.116814	422.905182	870.424744	501.771851	601.013977	807.999451	94.635452	640.697205	928.924744	38.811413	715.972839	890.313293	499.519287	563.670288	817.657166	80.165466	546.272095	932.451843	38.784122	459.066772	0.000000	0.000000	0.000000	0.000000	0.000000	0.000000	0.000000	0.000000	0.000000	0.000000	0.000000	0.000000	0.000000	0.000000	0.000000	0.000000	0.000000	0.000000	0.000000	0.000000	0.000000	0.000000	0.000000	0.000000	0.000000	0.000000	0.000000	0.000000	0.000000	0.000000	0.000000	0.000000	0.000000	0.000000	0.000000	0.000000	0.000000	0.000000	0.000000	0.000000	0.000000	0.000000	0.000000	0.000000	0.000000	0.000000	0.000000	0.000000	0.000000	0.000000	0.000000	0.000000	0.000000	0.000000	0.000000	0.000000	0.000000	0.000000	0.000000	0.000000	0.000000	0.000000	0.000000	0.000000	0.000000	0.000000	0.000000	0.000000	0.000000	0.000000	0.000000	0.000000	0.000000	0.000000	0.000000	0.000000	0.000000	0.000000	0.000000	0.000000	0.000000	
